<svg width="259" height="65" viewBox="0 0 259 65" fill="none" xmlns="http://www.w3.org/2000/svg">
<path d="M9.224 50C7.60267 50 6.13067 49.5947 4.808 48.784C3.48533 47.9733 2.41867 46.9067 1.608 45.584C0.797334 44.2613 0.392 42.7893 0.392 41.168V1.488H8.776V12.88H23.24V21.264H8.776V40.848C8.776 41.0613 8.84 41.2533 8.968 41.424C9.13867 41.552 9.33067 41.616 9.544 41.616H23.24V50H9.224ZM37.1585 50C35.5372 50 34.0652 49.5947 32.7425 48.784C31.4198 47.9733 30.3532 46.9067 29.5425 45.584C28.7318 44.2613 28.3265 42.7893 28.3265 41.168V21.712C28.3265 20.0907 28.7318 18.6187 29.5425 17.296C30.3532 15.9733 31.4198 14.9067 32.7425 14.096C34.0652 13.2853 35.5372 12.88 37.1585 12.88H57.1905C58.8118 12.88 60.2838 13.2853 61.6065 14.096C62.9718 14.9067 64.0385 15.9733 64.8065 17.296C65.6172 18.6187 66.0225 20.0907 66.0225 21.712V41.168C66.0225 42.7893 65.6172 44.2613 64.8065 45.584C64.0385 46.9067 62.9932 47.9733 61.6705 48.784C60.3478 49.5947 58.8545 50 57.1905 50H37.1585ZM37.4785 41.616H56.8705C57.0838 41.616 57.2545 41.552 57.3825 41.424C57.5532 41.2533 57.6385 41.0613 57.6385 40.848V22.032C57.6385 21.8187 57.5532 21.648 57.3825 21.52C57.2545 21.3493 57.0838 21.264 56.8705 21.264H37.4785C37.2652 21.264 37.0732 21.3493 36.9025 21.52C36.7745 21.648 36.7105 21.8187 36.7105 22.032V40.848C36.7105 41.0613 36.7745 41.2533 36.9025 41.424C37.0732 41.552 37.2652 41.616 37.4785 41.616ZM72.831 64.72V12.88H101.695C103.316 12.88 104.788 13.2853 106.111 14.096C107.476 14.9067 108.543 15.9733 109.311 17.296C110.122 18.6187 110.527 20.0907 110.527 21.712V41.168C110.527 42.7893 110.122 44.2613 109.311 45.584C108.543 46.9067 107.476 47.9733 106.111 48.784C104.788 49.5947 103.316 50 101.695 50H81.215V64.72H72.831ZM81.983 41.616H101.375C101.588 41.616 101.759 41.552 101.887 41.424C102.058 41.2533 102.143 41.0613 102.143 40.848V22.032C102.143 21.8187 102.058 21.648 101.887 21.52C101.759 21.3493 101.588 21.264 101.375 21.264H81.983C81.7697 21.264 81.5777 21.3493 81.407 21.52C81.279 21.648 81.215 21.8187 81.215 22.032V40.848C81.215 41.0613 81.279 41.2533 81.407 41.424C81.5777 41.552 81.7697 41.616 81.983 41.616ZM115.331 50V0.719997H123.715V27.216H130.307L143.555 12.88H152.515V15.184L137.731 31.44L152.451 47.696V50H143.555L130.307 35.664H123.715V50H115.331ZM165.41 50C163.789 50 162.295 49.5947 160.93 48.784C159.607 47.9733 158.541 46.9067 157.73 45.584C156.962 44.2613 156.578 42.7893 156.578 41.168V27.216H185.89V22.032C185.89 21.8187 185.805 21.648 185.634 21.52C185.506 21.3493 185.335 21.264 185.122 21.264H156.578V12.88H185.442C187.063 12.88 188.535 13.2853 189.858 14.096C191.223 14.9067 192.29 15.9733 193.058 17.296C193.869 18.6187 194.274 20.0907 194.274 21.712V50H165.41ZM165.73 41.616H185.89V34.768H164.962V40.848C164.962 41.0613 165.026 41.2533 165.154 41.424C165.325 41.552 165.517 41.616 165.73 41.616ZM208.473 50C206.851 50 205.379 49.5947 204.057 48.784C202.734 47.9733 201.667 46.9067 200.857 45.584C200.046 44.2613 199.641 42.7893 199.641 41.168V0.655998H208.089V40.848C208.089 41.0613 208.153 41.2533 208.281 41.424C208.451 41.552 208.643 41.616 208.857 41.616H215.961V50H208.473ZM229.66 50C228.039 50 226.545 49.5947 225.18 48.784C223.857 47.9733 222.791 46.9067 221.98 45.584C221.212 44.2613 220.828 42.7893 220.828 41.168V27.216H250.14V22.032C250.14 21.8187 250.055 21.648 249.884 21.52C249.756 21.3493 249.585 21.264 249.372 21.264H220.828V12.88H249.692C251.313 12.88 252.785 13.2853 254.108 14.096C255.473 14.9067 256.54 15.9733 257.308 17.296C258.119 18.6187 258.524 20.0907 258.524 21.712V50H229.66ZM229.98 41.616H250.14V34.768H229.212V40.848C229.212 41.0613 229.276 41.2533 229.404 41.424C229.575 41.552 229.767 41.616 229.98 41.616Z" fill="#F44336"/>
</svg>
